<svg width="1600" height="560" viewBox="0 0 1600 560" fill="none" xmlns="http://www.w3.org/2000/svg">
  <rect width="1600" height="560" fill="#FAFAFA"/>
  <g transform="translate(92 72) scale(0.42)">
    <rect x="32" y="32" width="960" height="960" rx="152" fill="#FAFAFA"/>
    <rect x="32.5" y="32.5" width="959" height="959" rx="151.5" stroke="#D4D4D8"/>
    <path d="M276 506C276 353.032 350.464 232 512 148" stroke="#09090B" stroke-width="20" stroke-linecap="round"/>
    <path d="M276 518C276 670.968 350.464 792 512 876" stroke="#09090B" stroke-width="20" stroke-linecap="round"/>
    <path d="M512 148L798 432" stroke="#09090B" stroke-width="20" stroke-linecap="round"/>
    <path d="M512 876L798 592" stroke="#09090B" stroke-width="20" stroke-linecap="round"/>
    <path d="M276 512H798" stroke="#09090B" stroke-width="20" stroke-linecap="round"/>
    <path d="M276 512C404 512 488 448 512 148" stroke="#09090B" stroke-width="20" stroke-linecap="round"/>
    <path d="M276 512C404 512 488 576 512 876" stroke="#09090B" stroke-width="20" stroke-linecap="round"/>
    <circle cx="276" cy="512" r="42" fill="#09090B"/>
    <circle cx="512" cy="148" r="42" fill="#09090B"/>
    <circle cx="798" cy="512" r="42" fill="#09090B"/>
    <circle cx="512" cy="876" r="42" fill="#09090B"/>
  </g>
  <line x1="510" y1="108" x2="510" y2="452" stroke="#D4D4D8"/>
  <text x="590" y="250" fill="#09090B" font-family="Arial, Helvetica, sans-serif" font-size="84" letter-spacing="-2">Vespera Systems</text>
  <text x="594" y="338" fill="#52525B" font-family="Arial, Helvetica, sans-serif" font-size="34" letter-spacing="14">MAP THE INVISIBLE</text>
</svg>
